<svg width="12" height="14" xmlns="http://www.w3.org/2000/svg" fill="none">
 <desc>Created with Pixso.</desc>

 <g>
  <title>Слой 1</title>
  <path id="Vector" d="m12,2.16c-0.01,-0.13 -0.05,-0.27 -0.13,-0.38c-0.08,-0.1 -0.19,-0.18 -0.32,-0.22c-0.05,-0.03 -0.11,-0.04 -0.17,-0.05l-3.42,0c-0.12,-0.44 -0.39,-0.82 -0.74,-1.09c-0.36,-0.28 -0.79,-0.42 -1.23,-0.42c-0.44,0 -0.87,0.14 -1.22,0.42c-0.36,0.27 -0.62,0.65 -0.75,1.09l-3.41,0c-0.06,0 -0.11,0.01 -0.17,0.03l-0.01,0c-0.13,0.04 -0.25,0.13 -0.33,0.25c-0.08,0.12 -0.11,0.26 -0.1,0.41c0.01,0.14 0.06,0.28 0.16,0.39c0.09,0.1 0.22,0.17 0.36,0.2l0.68,9.74c0.01,0.38 0.16,0.74 0.41,1.01c0.26,0.27 0.6,0.43 0.97,0.46l6.83,0c0.36,-0.02 0.71,-0.19 0.96,-0.46c0.26,-0.27 0.4,-0.63 0.42,-1.01l0.68,-9.74c0.14,-0.02 0.28,-0.09 0.37,-0.21c0.1,-0.12 0.16,-0.26 0.16,-0.42zm-6.01,-0.95c0.13,0 0.25,0.03 0.36,0.08c0.12,0.05 0.22,0.13 0.31,0.22l-1.33,0c0.08,-0.09 0.19,-0.17 0.3,-0.22c0.11,-0.05 0.24,-0.08 0.36,-0.08zm3.42,11.58l-6.83,0c-0.08,0 -0.21,-0.14 -0.22,-0.35l-0.67,-9.63l8.61,0l-0.68,9.63c-0.01,0.21 -0.13,0.35 -0.21,0.35z" fill="#FFFFFF" fill-rule="nonzero"/>
 </g>
</svg>