<svg width="17.454590" height="17.454544" viewBox="0 0 17.4546 17.4545" fill="none" xmlns="http://www.w3.org/2000/svg" xmlns:xlink="http://www.w3.org/1999/xlink">
	<desc>
			Created with Pixso.
	</desc>
	<defs/>
	<path id="Vector" d="M8.69 1.58C10.1 1.58 11.48 2 12.65 2.79C13.83 3.57 14.74 4.69 15.28 5.99C15.82 7.29 15.97 8.73 15.69 10.12C15.41 11.5 14.73 12.77 13.74 13.77C12.74 14.77 11.46 15.45 10.08 15.73C8.69 16 7.26 15.86 5.95 15.32C4.65 14.78 3.53 13.86 2.75 12.69C1.96 11.52 1.55 10.13 1.55 8.72C1.55 6.83 2.31 5.02 3.65 3.68C4.98 2.34 6.8 1.59 8.69 1.58ZM8.69 7.62e-5C6.96 0 5.28 0.52 3.85 1.48C2.42 2.45 1.3 3.81 0.65 5.41C-0.01 7 -0.17 8.76 0.17 10.45C0.51 12.14 1.34 13.69 2.56 14.91C3.79 16.12 5.34 16.95 7.03 17.28C8.72 17.62 10.48 17.44 12.07 16.78C13.66 16.12 15.02 15 15.98 13.57C16.94 12.13 17.45 10.45 17.45 8.72C17.45 7.57 17.22 6.44 16.78 5.37C16.34 4.31 15.7 3.35 14.88 2.54C14.07 1.73 13.1 1.09 12.04 0.65C10.97 0.21 9.84 -0.01 8.69 7.62e-5Z" fill="#4EA8DE" fill-opacity="1.000000" fill-rule="nonzero"/>
</svg>
